<svg xmlns="http://www.w3.org/2000/svg" width="800.901" height="744.774" viewBox="0 0 800.901 744.774" xmlns:xlink="http://www.w3.org/1999/xlink" role="img" artist="Katerina Limpitsouni" source="https://undraw.co/"><g transform="translate(-650 -341.075)"><path d="M15.18,489.226a1.852,1.852,0,0,0,1.6,2.035h797.7a2.094,2.094,0,0,0,0-4.07H16.78A1.852,1.852,0,0,0,15.18,489.226Z" transform="translate(634.82 588.657)" fill="#ccc"/><g transform="translate(671.329 341.075)"><path d="M452,494.719s10.525,45.1,1.5,45.1-27.064-21.049-27.064-21.049V506.742Z" transform="translate(-275.64 -162.657)" fill="#ed9da0"/><path d="M246.627,382.858l27.062,42.1H254.144Z" transform="translate(-92.072 -90.638)" fill="#d6d6e3"/><rect width="36.084" height="30.071" transform="translate(135.01 659.074)" fill="#ed9da0"/><path d="M389.346,663.944l-7.517,34.581L344.242,689.5l9.02-30.069Z" transform="translate(-334.023 -9.38)" fill="#ed9da0"/><path d="M583.513,504.344s12.032,6.014,13.532,33.077-4.51,97.727-4.51,97.727,6.014,31.569,0,60.14,6.014,132.309-1.5,132.309-46.609,4.51-48.112,0-3.007-72.168-3.007-72.168-12.032-34.581,0-55.633c0,0-27.064,22.552-27.064,28.567S484.286,827.6,470.756,829.1s-51.119-1.5-43.6-15.035,25.559-75.17,25.559-75.17,13.532-45.1,37.587-64.651l-12.032-96.224s-25.559-64.651-10.525-73.672S583.513,504.344,583.513,504.344Z" transform="translate(-415.426 -161.007)" fill="#090814"/><g transform="translate(129.239 310.056)"><path d="M93.194,0H10.566A10.578,10.578,0,0,0,0,10.566v97.017a10.578,10.578,0,0,0,10.566,10.566H93.191a10.578,10.578,0,0,0,10.566-10.566V10.566A10.578,10.578,0,0,0,93.194,0Z" transform="matrix(0.574, 0.819, -0.819, 0.574, 96.782, 0)" fill="#e6e6e6"/><path d="M90.148,0H7.524A7.533,7.533,0,0,0,0,7.524v97.017a7.533,7.533,0,0,0,7.524,7.524H90.148a7.533,7.533,0,0,0,7.524-7.524V7.524A7.533,7.533,0,0,0,90.148,0Z" transform="matrix(0.574, 0.819, -0.819, 0.574, 96.035, 4.241)" fill="#fff"/><path d="M43.539,3.517H1.758A1.758,1.758,0,0,1,1.758,0H43.541a1.758,1.758,0,1,1,0,3.517Z" transform="matrix(0.574, 0.819, -0.819, 0.574, 74.851, 60.796)" fill="#e6e6e6"/><path d="M50.8,3.517H1.758A1.758,1.758,0,1,1,1.758,0H50.8a1.758,1.758,0,1,1,0,3.517Z" transform="matrix(0.574, 0.819, -0.819, 0.574, 69.985, 64.201)" fill="#e6e6e6"/><path d="M43.541,3.517H1.758A1.758,1.758,0,1,1,1.758,0H43.541a1.758,1.758,0,1,1,0,3.517Z" transform="matrix(0.574, 0.819, -0.819, 0.574, 53.05, 76.057)" fill="#e6e6e6"/><path d="M50.8,3.517H1.758A1.758,1.758,0,1,1,1.758,0H50.8a1.758,1.758,0,1,1,0,3.517Z" transform="matrix(0.574, 0.819, -0.819, 0.574, 48.184, 79.467)" fill="#e6e6e6"/><path d="M15.63,14.849H.844A.844.844,0,0,1,0,14.005V.844A.844.844,0,0,1,.844,0H15.63a.844.844,0,0,1,.844.844V14.005A.844.844,0,0,1,15.63,14.849Z" transform="matrix(0.574, 0.819, -0.819, 0.574, 63.736, 40.215)" fill="#e6e6e6"/><path d="M15.63,14.853H.844A.844.844,0,0,1,0,14.009V.844A.844.844,0,0,1,.844,0H15.63a.844.844,0,0,1,.844.844V14.005a.844.844,0,0,1-.844.848Z" transform="matrix(0.574, 0.819, -0.819, 0.574, 41.939, 55.475)" fill="#e6e6e6"/><path d="M32.556,3.517H1.758A1.758,1.758,0,0,1,1.758,0h30.8a1.758,1.758,0,0,1,0,3.517Z" transform="matrix(0.574, 0.819, -0.819, 0.574, 105.444, 52.833)" fill="#43d6aa"/><path d="M39.815,3.517H1.758A1.758,1.758,0,1,1,1.758,0H39.82a1.758,1.758,0,1,1,0,3.517Z" transform="matrix(0.574, 0.819, -0.819, 0.574, 100.58, 56.236)" fill="#43d6aa"/><path d="M29.242,23.844H.844A.844.844,0,0,1,0,23V.844A.844.844,0,0,1,.844,0h28.4a.844.844,0,0,1,.844.844V23a.844.844,0,0,1-.844.844Z" transform="matrix(0.574, 0.819, -0.819, 0.574, 91.658, 20.609)" fill="#43d6aa"/></g><path d="M515.208,304.783s-15.035,49.616-10.525,55.633-48.112-33.077-48.112-33.077,19.545-13.532,12.032-33.077Z" transform="translate(-372.681 -221.552)" fill="#ed9da0"/><ellipse cx="39.091" cy="39.091" rx="39.091" ry="39.091" transform="translate(83.891 20.086)" fill="#ed9da0"/><path d="M462.371,316.339s18.042,6.014,27.064,16.539,30.07,12.032,30.07,12.032,18.607,10.48,25.559,28.567c7.41,19.278,3.105,46.418,0,52.623-6.013,12.032-6.013,42.1-6.013,42.1l7.517,69.161s27.064,25.559,6.014,28.567-58.636-1.5-81.19,0-48.112,4.51-40.594-10.525,16.539-25.559,7.517-55.633c-7.059-23.53-6.754-111.509-6.287-148.658a29.91,29.91,0,0,1,14.531-25.282Z" transform="translate(-382.991 -215.065)" fill="#d6d6e3"/><path d="M479.424,494.137s6.84,15.061,7.517,24.056c5.262,69.913-33.077,0-33.077,0V506.16Z" transform="translate(-341.409 -162.828)" fill="#ed9da0"/><path d="M523.2,763.989s21.717-15.926,21.717-7.239,24.612,43.434,24.612,43.434,40.539,28.957,7.239,28.957-47.779-5.791-47.779-5.791l-34.748-23.165s-8.686-10.135-5.791-21.717,13.031-27.509,13.031-27.509S513.066,766.884,523.2,763.989Z" transform="translate(-487.864 -84.367)" fill="#090814"/><path d="M411.119,766.771s2.909-14.544,13.09-7.272,37.815,29.089,37.815,29.089,50.905,11.64,18.907,26.179-104.719-5.817-104.719-5.817-2.909-46.542,0-45.088S409.665,769.683,411.119,766.771Z" transform="translate(-243.328 -83.353)" fill="#090814"/><path d="M277.28,271.879l-4.51,91.714,43.712,88.521,7.413-2.82L278.79,366.6Z" transform="translate(-176.102 -123.244)" opacity="0.1"/><path d="M493.032,331.958,481.756,329.7s-33.829,24.807-23.3,74.423,57.133,124.791,57.133,124.791,10.525,13.532,13.532,16.539,9.022,0,6.014,4.51,4.51,7.517,4.51,7.517,33.077,0,30.07-12.032-54.126-97.727-54.126-97.727l7.517-79.685S529.116,328.951,493.032,331.958Z" transform="translate(-427.184 -211.139)" fill="#d6d6e3"/><path d="M307.636,360.263V349.738l51.119,84.2Z" transform="translate(-256.071 -100.369)" opacity="0.1"/><path d="M517.713,261.025l6.463-2.588s-13.512-14.879-32.313-13.585l5.288-5.822s-12.925-5.175-24.675,8.41c-6.177,7.141-13.326,15.533-17.778,24.987h-6.92l2.889,6.36-10.11,6.36,10.376-1.142a35.192,35.192,0,0,0,.982,16.473l-.278,5.028s12.032-18.61,12.032-21.2v6.469s6.463-5.822,6.463-9.7l3.524,4.528,1.762-7.116,21.736,7.116-3.524-5.822,13.512,1.941-5.288-7.116s15.275,8.41,15.862,15.526S525.94,306.3,525.94,306.3l3.524-6.469S534.75,270.728,517.713,261.025Z" transform="translate(-366.993 -238.063)" fill="#090814"/></g><g transform="translate(992.98 677.42)"><path d="M583.528,555H356.851a10.777,10.777,0,0,1-10.763-10.772V236.516a10.776,10.776,0,0,1,10.763-10.763H583.528a10.777,10.777,0,0,1,10.763,10.763V544.23A10.777,10.777,0,0,1,583.528,555Z" transform="translate(-241.056 -225.753)" fill="#f2f2f2"/><path d="M443.212,381.884a2.815,2.815,0,0,0-1.384.486,41.378,41.378,0,0,0,6.2-.861Z" transform="translate(-262.272 -260.28)" fill="#2f2e41"/><path d="M426,273.085a43.25,43.25,0,0,0-21.575,80.73,42.538,42.538,0,0,0,6.873,3.2l.4.139a43.01,43.01,0,0,0,14.3,2.429c.943,0,1.883-.031,2.811-.1a42.553,42.553,0,0,0,6.374-.883c1.175-.256,2.327-.561,3.418-.894.265-.077.514-.155.786-.241A43.254,43.254,0,0,0,426,273.081Zm25.09,75.648a41.008,41.008,0,0,1-12.415,6.546l-.74.234c-1.035.32-2.124.6-3.245.841a39.882,39.882,0,0,1-6.032.841c-.883.062-1.766.093-2.663.093a40.9,40.9,0,0,1-13.536-2.3l-.382-.133a39.875,39.875,0,0,1-6.818-3.206,40.923,40.923,0,1,1,45.828-2.919Z" transform="translate(-249.183 -236.247)" fill="#ccc"/><path d="M575.056,325.547h-64.14a5.078,5.078,0,1,1,0-10.156h64.14a5.078,5.078,0,0,1,0,10.156Z" transform="translate(-276.465 -245.629)" fill="#e6e6e6"/><path d="M595.986,347.55H510.915a5.078,5.078,0,1,1,0-10.156h85.073a5.078,5.078,0,0,1,0,10.156Z" transform="translate(-276.465 -250.506)" fill="#e6e6e6"/><path d="M547.709,431.939H387.96a5.078,5.078,0,1,1,0-10.156H547.71a5.078,5.078,0,1,1,0,10.156Z" transform="translate(-249.215 -269.206)" fill="#e6e6e6"/><path d="M568.64,453.942H387.96a5.078,5.078,0,0,1,0-10.156H568.642a5.078,5.078,0,1,1,0,10.156Z" transform="translate(-249.215 -274.088)" fill="#e6e6e6"/><path d="M698.879,352.194a9.443,9.443,0,0,0-5.228-9.494L518.956,257.318a9.419,9.419,0,0,0-12.6,4.321h0L440.822,395.7a9.434,9.434,0,0,0,4.327,12.6l174.694,85.382a9.434,9.434,0,0,0,12.6-4.327L697.969,355.3a9.354,9.354,0,0,0,.91-3.107Z" transform="translate(-261.847 -232.542)" fill="#fff"/><path d="M698.879,352.194a9.443,9.443,0,0,0-5.228-9.494L518.956,257.318a9.419,9.419,0,0,0-12.6,4.321h0L440.822,395.7a9.434,9.434,0,0,0,4.327,12.6l174.694,85.382a9.434,9.434,0,0,0,12.6-4.327L697.969,355.3a9.354,9.354,0,0,0,.91-3.107ZM631.46,488.871a8.324,8.324,0,0,1-11.119,3.817L445.647,407.307a8.324,8.324,0,0,1-3.818-11.119l65.52-134.059a8.324,8.324,0,0,1,11.119-3.817l174.694,85.382a8.323,8.323,0,0,1,3.817,11.119Z" transform="translate(-261.847 -232.542)" fill="#3f3d56"/><path d="M688.449,364.124,642.7,457.737a2.623,2.623,0,0,1-3.506,1.206h0L480.283,381.275a2.211,2.211,0,0,1-.324-.192,2.621,2.621,0,0,1-.883-3.312l45.751-93.613a2.623,2.623,0,0,1,3.506-1.206h0L687.241,360.62a2.623,2.623,0,0,1,1.206,3.506h0Z" transform="translate(-270.478 -238.371)" fill="#e6e6e6"/><circle cx="23.012" cy="23.012" r="23.012" transform="translate(255.45 74.968)" fill="#43d6aa"/><path d="M583.213,442.869,481.784,393.3a2.3,2.3,0,0,1-.364-.221L570,333.428a3.738,3.738,0,0,1,5.846,2.857l4.941,71.5.238,3.422Z" transform="translate(-271.053 -249.476)" fill="#090814"/><path d="M391.188,320.87l-34.63-16.925,29.069-16.385,2.093-1.179,1.046-.592.238,3.422Z" transform="translate(-79.026 -127.478)" opacity="0.2" style="isolation:isolate"/><path d="M659.776,486.216,572.049,443.34l29.069-16.384,2.093-1.181,37.88-21.352a4.99,4.99,0,0,1,6.844,2.855,4.468,4.468,0,0,1,.124.554Z" transform="translate(-291.138 -265.224)" fill="#090814"/><path d="M620.925,662.947H236.837a25.715,25.715,0,0,1-25.686-25.686V426.328a25.715,25.715,0,0,1,25.686-25.686h47.091a25.629,25.629,0,0,1,17.276,6.679l51.068,36.467a18.045,18.045,0,0,0,12.187,4.725H623.311A25.686,25.686,0,0,1,649,474.565l-2.385,163.063A25.794,25.794,0,0,1,620.925,662.947Z" transform="translate(-211.151 -264.518)" fill="#43d6aa"/><path d="M693.221,281.846h.042a27.881,27.881,0,0,0,.622-55.638.638.638,0,0,0-.686.627l-.609,54.375a.638.638,0,0,0,.631.645Z" transform="translate(-514.898 -173.896)" fill="#43d6aa"/><path d="M664.183,237.433a.821.821,0,0,1,.576.245l18.718,19.144a.811.811,0,0,1,.234.581l-.291,26.017a.807.807,0,0,1-.265.592.822.822,0,0,1-.618.221,28.062,28.062,0,0,1-18.987-46.517.82.82,0,0,1,.594-.278Z" transform="translate(-507.723 -176.138)" fill="#e6e6e6"/><path d="M685.509,225.929a.824.824,0,0,1,.561.221.81.81,0,0,1,.252.6l-.263,23.476a.817.817,0,0,1-1.4.563l-16.338-16.7a.819.819,0,0,1,.044-1.186,28.121,28.121,0,0,1,17.093-6.972Z" transform="translate(-510.019 -173.847)" fill="#090814"/><g transform="translate(176.159 237.623)"><path d="M542.411,470.607c-14.947,0-27.119-12.923-27.119-28.807s12.165-28.807,27.119-28.807,27.119,12.923,27.119,28.807S557.364,470.607,542.411,470.607Zm0-50.337c-10.94,0-19.839,9.657-19.839,21.528s8.9,21.528,19.839,21.528,19.839-9.659,19.839-21.528-8.9-21.527-19.839-21.527Z" transform="translate(-499.637 -412.992)" fill="#d6d6e3"/><path d="M564.948,526.575H513.58A17.1,17.1,0,0,1,496.5,509.493v-50.38a11.71,11.71,0,0,1,11.7-11.7h62.137a11.708,11.708,0,0,1,11.7,11.7v50.379A17.1,17.1,0,0,1,564.948,526.575Z" transform="translate(-496.496 -418.757)" fill="#f2f2f2"/><path d="M555.86,479.826a10.009,10.009,0,1,0-14.558,8.908v15.66h9.105v-15.66A10,10,0,0,0,555.86,479.826Z" transform="translate(-503.08 -422.507)" fill="#43d6aa"/></g></g></g></svg>